<svg xmlns="http://www.w3.org/2000/svg" width="16" height="16" fill="#777d74">
    <path d="M 8.035156 0 C 8.03125 0.00390625 8.023438 0.00390625 8.011719 0.00390625 C 3.671875 0.00390625 0.144531 3.53125 0.144531 7.871094 C 0.144531 9.640625 0.75 11.359375 1.855469 12.746094 L 0.710938 15.402344 C 0.617188 15.621094 0.71875 15.875 0.933594 15.964844 C 1.011719 16 1.097656 16.007812 1.175781 15.996094 L 5.375 15.257812 C 6.214844 15.5625 7.097656 15.714844 7.988281 15.710938 C 12.328125 15.710938 15.855469 12.183594 15.855469 7.84375 C 15.863281 3.519531 12.363281 0.00390625 8.035156 0 Z M 7.992188 14.859375 C 7.167969 14.859375 6.347656 14.707031 5.570312 14.417969 C 5.5 14.386719 5.421875 14.382812 5.34375 14.394531 L 1.8125 15.011719 L 2.746094 12.839844 C 2.8125 12.6875 2.785156 12.511719 2.679688 12.390625 C 2.171875 11.800781 1.769531 11.132812 1.484375 10.410156 C 1.167969 9.597656 1.007812 8.738281 1.007812 7.867188 C 1.007812 4 4.152344 0.855469 8.015625 0.855469 C 11.867188 0.847656 15 3.964844 15.003906 7.820312 C 15.003906 7.828125 15.003906 7.835938 15.003906 7.84375 C 15.003906 11.714844 11.855469 14.859375 7.992188 14.859375 Z M 7.992188 14.859375 "/>
    <path d="M 7.660156 6.289062 L 5.34375 6.289062 C 5.109375 6.289062 4.914062 6.480469 4.914062 6.71875 C 4.914062 6.953125 5.109375 7.144531 5.34375 7.144531 L 7.660156 7.144531 C 7.894531 7.144531 8.085938 6.953125 8.085938 6.71875 C 8.085938 6.480469 7.894531 6.289062 7.660156 6.289062 Z M 7.660156 6.289062 "/>
    <path d="M 10.660156 8.433594 L 5.34375 8.433594 C 5.109375 8.433594 4.914062 8.625 4.914062 8.859375 C 4.914062 9.097656 5.109375 9.289062 5.34375 9.289062 L 10.660156 9.289062 C 10.894531 9.289062 11.089844 9.097656 11.089844 8.859375 C 11.089844 8.625 10.894531 8.433594 10.660156 8.433594 Z M 10.660156 8.433594 "/>
</svg>
