<svg xmlns="http://www.w3.org/2000/svg"  width="16" height="16" fill="#777d74">
<path d="M 15.417969 7.863281 C 15.226562 7.828125 15.035156 7.863281 14.875 7.972656 C 14.742188 8.0625 14.644531 8.1875 14.59375 8.335938 L 13.773438 7.980469 C 13.773438 7.921875 13.777344 7.867188 13.777344 7.8125 C 13.777344 7.328125 13.714844 6.847656 13.597656 6.382812 L 13.964844 6.132812 C 14.199219 6.339844 14.539062 6.398438 14.835938 6.269531 C 15.234375 6.097656 15.425781 5.632812 15.273438 5.214844 L 15.097656 4.75 C 14.941406 4.328125 14.488281 4.105469 14.066406 4.242188 C 13.855469 4.3125 13.683594 4.460938 13.585938 4.664062 C 13.53125 4.777344 13.5 4.898438 13.5 5.023438 L 13.082031 5.082031 C 13.027344 4.976562 12.964844 4.871094 12.894531 4.765625 C 12.828125 4.652344 12.683594 4.621094 12.570312 4.691406 C 12.460938 4.757812 12.429688 4.90625 12.5 5.015625 C 12.578125 5.140625 12.648438 5.265625 12.714844 5.386719 C 12.777344 5.511719 12.914062 5.578125 13.050781 5.558594 L 13.804688 5.453125 C 13.875 5.445312 13.9375 5.40625 13.972656 5.34375 C 14.007812 5.285156 14.015625 5.210938 13.992188 5.144531 C 13.960938 5.054688 13.964844 4.957031 14.007812 4.871094 C 14.050781 4.785156 14.121094 4.71875 14.214844 4.691406 C 14.390625 4.632812 14.589844 4.730469 14.660156 4.914062 L 14.832031 5.378906 C 14.898438 5.5625 14.816406 5.765625 14.648438 5.839844 C 14.488281 5.910156 14.296875 5.851562 14.207031 5.699219 C 14.171875 5.644531 14.117188 5.605469 14.054688 5.59375 C 13.992188 5.578125 13.925781 5.59375 13.875 5.628906 L 13.25 6.050781 C 13.132812 6.132812 13.078125 6.273438 13.117188 6.410156 C 13.242188 6.867188 13.304688 7.335938 13.304688 7.8125 C 13.304688 7.890625 13.304688 7.972656 13.300781 8.054688 C 13.292969 8.191406 13.371094 8.316406 13.496094 8.371094 L 14.667969 8.882812 C 14.734375 8.910156 14.808594 8.910156 14.871094 8.875 C 14.933594 8.84375 14.980469 8.78125 14.992188 8.710938 L 15.03125 8.523438 C 15.042969 8.457031 15.082031 8.398438 15.136719 8.363281 C 15.195312 8.324219 15.261719 8.3125 15.328125 8.324219 C 15.464844 8.351562 15.550781 8.484375 15.527344 8.621094 L 15.332031 9.601562 C 15.320312 9.667969 15.28125 9.726562 15.222656 9.765625 C 15.164062 9.800781 15.09375 9.8125 15.023438 9.796875 C 14.898438 9.765625 14.8125 9.628906 14.839844 9.492188 L 14.847656 9.464844 C 14.859375 9.394531 14.839844 9.320312 14.792969 9.265625 C 14.746094 9.210938 14.675781 9.179688 14.605469 9.183594 L 13.335938 9.242188 C 13.203125 9.25 13.082031 9.339844 13.039062 9.464844 C 12.921875 9.820312 12.765625 10.164062 12.578125 10.484375 C 12.503906 10.605469 12.519531 10.757812 12.605469 10.863281 L 13.167969 11.53125 C 13.210938 11.582031 13.269531 11.609375 13.335938 11.613281 C 13.398438 11.617188 13.464844 11.59375 13.511719 11.550781 C 13.636719 11.429688 13.828125 11.417969 13.964844 11.523438 C 14.039062 11.582031 14.085938 11.664062 14.101562 11.757812 C 14.113281 11.851562 14.085938 11.941406 14.03125 12.019531 L 13.867188 12.230469 C 13.75 12.382812 13.53125 12.421875 13.382812 12.316406 C 13.253906 12.230469 13.199219 12.0625 13.246094 11.914062 C 13.285156 11.800781 13.230469 11.675781 13.121094 11.625 L 12.3125 11.269531 C 12.183594 11.214844 12.03125 11.246094 11.9375 11.351562 C 11.578125 11.746094 11.160156 12.082031 10.699219 12.351562 C 10.582031 12.421875 10.519531 12.554688 10.539062 12.6875 L 10.746094 13.953125 C 10.757812 14.023438 10.800781 14.082031 10.863281 14.117188 C 10.925781 14.152344 11 14.15625 11.066406 14.132812 L 11.246094 14.058594 C 11.3125 14.035156 11.382812 14.035156 11.445312 14.0625 C 11.507812 14.09375 11.554688 14.144531 11.578125 14.210938 C 11.621094 14.335938 11.550781 14.480469 11.421875 14.53125 L 10.503906 14.898438 C 10.441406 14.925781 10.371094 14.921875 10.308594 14.894531 C 10.242188 14.863281 10.195312 14.8125 10.171875 14.746094 C 10.128906 14.621094 10.199219 14.476562 10.332031 14.425781 L 10.355469 14.414062 C 10.421875 14.390625 10.472656 14.332031 10.492188 14.265625 C 10.515625 14.195312 10.5 14.121094 10.460938 14.0625 L 9.722656 13.027344 C 9.644531 12.917969 9.503906 12.867188 9.371094 12.902344 C 8.941406 13.011719 8.496094 13.070312 8.050781 13.070312 C 7.695312 13.070312 7.339844 13.03125 6.996094 12.960938 C 6.863281 12.933594 6.726562 12.992188 6.652344 13.105469 L 5.914062 14.265625 C 5.875 14.324219 5.867188 14.398438 5.890625 14.46875 C 5.914062 14.535156 5.964844 14.589844 6.03125 14.613281 L 6.058594 14.621094 C 6.148438 14.65625 6.21875 14.71875 6.261719 14.808594 C 6.300781 14.894531 6.304688 14.992188 6.273438 15.082031 C 6.261719 15.105469 6.257812 15.132812 6.257812 15.160156 C 6.257812 15.25 6.230469 15.316406 6.183594 15.351562 C 6.136719 15.382812 6.0625 15.386719 5.980469 15.355469 L 5.074219 15.023438 C 4.890625 14.957031 4.792969 14.753906 4.855469 14.570312 C 4.886719 14.484375 4.953125 14.414062 5.039062 14.371094 C 5.132812 14.328125 5.238281 14.324219 5.332031 14.359375 L 5.351562 14.363281 C 5.421875 14.390625 5.496094 14.382812 5.558594 14.34375 C 5.617188 14.304688 5.660156 14.242188 5.667969 14.171875 L 5.816406 12.8125 C 5.832031 12.679688 5.761719 12.546875 5.640625 12.484375 C 5.09375 12.203125 4.601562 11.828125 4.183594 11.371094 C 4.089844 11.269531 3.941406 11.238281 3.816406 11.289062 L 2.710938 11.742188 C 2.648438 11.769531 2.601562 11.820312 2.578125 11.882812 C 2.554688 11.945312 2.558594 12.011719 2.589844 12.070312 C 2.660156 12.203125 2.621094 12.363281 2.496094 12.445312 C 2.367188 12.53125 2.1875 12.492188 2.09375 12.359375 L 1.808594 11.949219 C 1.71875 11.820312 1.742188 11.644531 1.859375 11.550781 C 1.921875 11.5 1.996094 11.480469 2.074219 11.488281 C 2.152344 11.5 2.21875 11.539062 2.265625 11.601562 C 2.308594 11.65625 2.375 11.691406 2.445312 11.695312 C 2.515625 11.695312 2.582031 11.667969 2.628906 11.613281 L 3.410156 10.734375 C 3.5 10.628906 3.519531 10.480469 3.449219 10.359375 C 3.367188 10.207031 3.289062 10.046875 3.21875 9.882812 C 3.167969 9.765625 3.03125 9.710938 2.910156 9.761719 C 2.792969 9.8125 2.734375 9.949219 2.789062 10.070312 C 2.851562 10.214844 2.917969 10.359375 2.992188 10.496094 L 2.433594 11.128906 C 2.34375 11.074219 2.242188 11.039062 2.132812 11.023438 C 1.929688 10.996094 1.730469 11.054688 1.570312 11.179688 C 1.253906 11.425781 1.191406 11.882812 1.425781 12.21875 L 1.707031 12.625 C 1.945312 12.964844 2.414062 13.0625 2.753906 12.839844 C 3.007812 12.671875 3.128906 12.378906 3.085938 12.097656 L 3.902344 11.761719 C 4.324219 12.203125 4.804688 12.570312 5.339844 12.855469 L 5.226562 13.867188 C 5.09375 13.863281 4.960938 13.890625 4.835938 13.949219 C 4.636719 14.042969 4.484375 14.210938 4.414062 14.417969 C 4.269531 14.84375 4.492188 15.3125 4.914062 15.464844 L 5.820312 15.796875 C 5.910156 15.828125 6.003906 15.84375 6.089844 15.84375 C 6.222656 15.84375 6.347656 15.808594 6.453125 15.734375 C 6.617188 15.621094 6.714844 15.425781 6.726562 15.203125 C 6.789062 15.003906 6.773438 14.796875 6.6875 14.609375 C 6.628906 14.488281 6.546875 14.386719 6.445312 14.304688 L 6.996094 13.441406 C 7.789062 13.589844 8.613281 13.566406 9.394531 13.378906 L 9.929688 14.128906 C 9.71875 14.320312 9.632812 14.621094 9.730469 14.898438 C 9.796875 15.089844 9.929688 15.238281 10.113281 15.320312 C 10.289062 15.402344 10.496094 15.40625 10.679688 15.335938 L 11.59375 14.96875 C 11.960938 14.824219 12.148438 14.421875 12.023438 14.058594 C 11.957031 13.871094 11.820312 13.71875 11.640625 13.636719 C 11.492188 13.570312 11.324219 13.554688 11.164062 13.59375 L 11.019531 12.707031 C 11.460938 12.441406 11.859375 12.117188 12.214844 11.742188 L 12.761719 11.980469 C 12.746094 12.261719 12.875 12.539062 13.113281 12.703125 C 13.476562 12.953125 13.96875 12.871094 14.242188 12.515625 L 14.402344 12.304688 C 14.539062 12.128906 14.59375 11.914062 14.566406 11.695312 C 14.535156 11.476562 14.425781 11.285156 14.25 11.152344 C 13.996094 10.957031 13.664062 10.929688 13.390625 11.066406 L 13.03125 10.636719 C 13.199219 10.339844 13.339844 10.027344 13.453125 9.707031 L 14.375 9.664062 C 14.421875 9.945312 14.625 10.183594 14.914062 10.253906 C 15.105469 10.300781 15.304688 10.269531 15.472656 10.160156 C 15.640625 10.054688 15.757812 9.882812 15.792969 9.691406 L 15.988281 8.710938 C 16.0625 8.320312 15.808594 7.941406 15.417969 7.863281 Z M 15.417969 7.863281 "/>
<path d="M 1.511719 8.496094 L 2.394531 8.699219 C 2.414062 8.824219 2.4375 8.949219 2.464844 9.070312 C 2.488281 9.179688 2.585938 9.253906 2.691406 9.253906 C 2.710938 9.253906 2.726562 9.253906 2.746094 9.25 C 2.871094 9.222656 2.949219 9.09375 2.921875 8.96875 C 2.890625 8.824219 2.863281 8.679688 2.84375 8.539062 C 2.824219 8.40625 2.726562 8.296875 2.59375 8.265625 L 1.347656 7.976562 C 1.277344 7.960938 1.203125 7.976562 1.148438 8.023438 C 1.09375 8.066406 1.058594 8.132812 1.058594 8.203125 L 1.058594 8.351562 C 1.058594 8.511719 0.921875 8.644531 0.757812 8.644531 C 0.679688 8.644531 0.609375 8.617188 0.554688 8.5625 C 0.5 8.503906 0.46875 8.433594 0.46875 8.355469 L 0.476562 7.449219 C 0.480469 7.367188 0.515625 7.285156 0.574219 7.226562 C 0.632812 7.171875 0.703125 7.140625 0.78125 7.144531 C 0.9375 7.148438 1.066406 7.28125 1.066406 7.4375 C 1.066406 7.511719 1.097656 7.578125 1.15625 7.625 C 1.210938 7.667969 1.285156 7.683594 1.355469 7.667969 L 2.59375 7.378906 C 2.722656 7.347656 2.824219 7.238281 2.84375 7.101562 C 2.933594 6.425781 3.152344 5.78125 3.496094 5.191406 C 3.5625 5.070312 3.550781 4.917969 3.460938 4.8125 L 2.871094 4.121094 C 2.824219 4.066406 2.757812 4.035156 2.683594 4.039062 C 2.613281 4.039062 2.546875 4.074219 2.503906 4.132812 L 2.453125 4.199219 C 2.414062 4.25 2.359375 4.28125 2.296875 4.289062 C 2.234375 4.296875 2.171875 4.277344 2.125 4.234375 C 2.03125 4.160156 2.019531 4.011719 2.09375 3.910156 L 2.488281 3.390625 C 2.566406 3.289062 2.710938 3.269531 2.808594 3.347656 C 2.90625 3.417969 2.929688 3.550781 2.867188 3.652344 C 2.828125 3.710938 2.820312 3.78125 2.839844 3.847656 C 2.859375 3.914062 2.90625 3.964844 2.96875 3.992188 L 3.796875 4.351562 C 3.925781 4.40625 4.074219 4.375 4.167969 4.269531 C 4.542969 3.859375 4.980469 3.511719 5.460938 3.238281 C 5.578125 3.171875 5.644531 3.039062 5.625 2.902344 L 5.433594 1.640625 C 5.425781 1.570312 5.382812 1.507812 5.320312 1.472656 C 5.257812 1.433594 5.183594 1.429688 5.117188 1.453125 L 4.9375 1.523438 C 4.875 1.546875 4.804688 1.546875 4.738281 1.515625 C 4.675781 1.488281 4.628906 1.433594 4.609375 1.367188 C 4.566406 1.242188 4.640625 1.097656 4.769531 1.046875 L 5.691406 0.695312 C 5.753906 0.667969 5.824219 0.671875 5.886719 0.703125 C 5.949219 0.730469 5.996094 0.785156 6.019531 0.851562 C 6.0625 0.976562 5.988281 1.121094 5.859375 1.171875 L 5.832031 1.179688 C 5.765625 1.207031 5.714844 1.261719 5.691406 1.328125 C 5.671875 1.398438 5.683594 1.472656 5.722656 1.53125 L 6.449219 2.578125 C 6.523438 2.6875 6.664062 2.738281 6.796875 2.707031 C 7.203125 2.609375 7.625 2.558594 8.050781 2.558594 C 8.1875 2.558594 8.3125 2.46875 8.359375 2.339844 L 8.601562 1.667969 C 8.621094 1.609375 8.617188 1.542969 8.589844 1.484375 C 8.558594 1.429688 8.507812 1.386719 8.449219 1.367188 C 8.273438 1.3125 8.164062 1.140625 8.183594 0.957031 C 8.195312 0.863281 8.246094 0.773438 8.328125 0.710938 C 8.414062 0.644531 8.519531 0.613281 8.625 0.625 L 8.953125 0.667969 C 9.167969 0.695312 9.324219 0.882812 9.300781 1.089844 C 9.285156 1.246094 9.171875 1.375 9.019531 1.417969 C 8.90625 1.445312 8.832031 1.554688 8.84375 1.671875 L 8.929688 2.398438 C 8.945312 2.535156 9.046875 2.648438 9.183594 2.679688 C 9.707031 2.792969 10.210938 2.988281 10.675781 3.261719 C 10.792969 3.328125 10.941406 3.316406 11.046875 3.230469 L 12.039062 2.425781 C 12.097656 2.378906 12.128906 2.3125 12.128906 2.242188 C 12.128906 2.167969 12.09375 2.101562 12.039062 2.058594 L 11.886719 1.9375 C 11.832031 1.894531 11.800781 1.832031 11.792969 1.765625 C 11.785156 1.695312 11.808594 1.628906 11.855469 1.574219 C 11.941406 1.476562 12.101562 1.464844 12.210938 1.550781 L 12.984375 2.164062 C 13.039062 2.207031 13.070312 2.269531 13.078125 2.339844 C 13.085938 2.410156 13.0625 2.476562 13.015625 2.527344 C 12.929688 2.628906 12.769531 2.636719 12.660156 2.550781 L 12.636719 2.535156 C 12.582031 2.488281 12.507812 2.472656 12.4375 2.488281 C 12.367188 2.507812 12.308594 2.554688 12.277344 2.621094 L 11.746094 3.777344 C 11.691406 3.898438 11.714844 4.042969 11.808594 4.140625 C 11.84375 4.175781 11.875 4.210938 11.917969 4.253906 C 12.003906 4.347656 12.152344 4.355469 12.246094 4.265625 C 12.34375 4.179688 12.347656 4.03125 12.261719 3.933594 C 12.246094 3.917969 12.230469 3.898438 12.214844 3.882812 L 12.601562 3.042969 C 12.871094 3.132812 13.175781 3.058594 13.371094 2.835938 C 13.5 2.6875 13.5625 2.496094 13.546875 2.296875 C 13.527344 2.101562 13.429688 1.917969 13.277344 1.796875 L 12.503906 1.183594 C 12.195312 0.941406 11.753906 0.976562 11.5 1.265625 C 11.371094 1.417969 11.308594 1.609375 11.324219 1.804688 C 11.339844 1.96875 11.410156 2.121094 11.523438 2.238281 L 10.828125 2.804688 C 10.371094 2.550781 9.886719 2.363281 9.382812 2.242188 L 9.332031 1.792969 C 9.570312 1.660156 9.738281 1.417969 9.769531 1.140625 C 9.816406 0.683594 9.480469 0.261719 9.011719 0.203125 L 8.683594 0.160156 C 8.457031 0.132812 8.222656 0.199219 8.039062 0.339844 C 7.859375 0.480469 7.746094 0.679688 7.71875 0.902344 C 7.679688 1.226562 7.828125 1.535156 8.085938 1.707031 L 7.953125 2.089844 C 7.554688 2.09375 7.164062 2.140625 6.777344 2.230469 L 6.253906 1.472656 C 6.46875 1.285156 6.558594 0.984375 6.464844 0.703125 C 6.402344 0.515625 6.269531 0.363281 6.089844 0.277344 C 5.910156 0.195312 5.703125 0.1875 5.519531 0.257812 L 4.601562 0.609375 C 4.234375 0.75 4.042969 1.148438 4.164062 1.515625 C 4.226562 1.703125 4.359375 1.855469 4.539062 1.941406 C 4.6875 2.011719 4.855469 2.027344 5.011719 1.992188 L 5.144531 2.878906 C 4.683594 3.152344 4.261719 3.488281 3.890625 3.878906 L 3.359375 3.652344 C 3.402344 3.398438 3.308594 3.132812 3.09375 2.972656 C 2.945312 2.859375 2.761719 2.8125 2.574219 2.835938 C 2.390625 2.863281 2.226562 2.960938 2.113281 3.109375 L 1.722656 3.628906 C 1.492188 3.933594 1.535156 4.359375 1.824219 4.597656 C 1.972656 4.722656 2.160156 4.777344 2.351562 4.753906 C 2.472656 4.742188 2.585938 4.695312 2.683594 4.625 L 3.039062 5.042969 C 2.710938 5.636719 2.492188 6.273438 2.390625 6.945312 L 1.480469 7.15625 C 1.371094 6.882812 1.105469 6.683594 0.792969 6.671875 C 0.589844 6.667969 0.398438 6.746094 0.25 6.886719 C 0.0976562 7.035156 0.0117188 7.234375 0.0078125 7.445312 L 0 8.351562 C 0 8.554688 0.078125 8.746094 0.21875 8.890625 C 0.363281 9.035156 0.554688 9.117188 0.757812 9.117188 C 1.128906 9.117188 1.441406 8.847656 1.511719 8.496094 Z M 1.511719 8.496094 "/>
<path d="M 6.886719 7.214844 C 7.003906 7.15625 7.046875 7.011719 6.984375 6.898438 C 6.925781 6.785156 6.78125 6.738281 6.667969 6.800781 C 6.105469 7.097656 5.464844 7.019531 5.148438 6.613281 C 4.96875 6.386719 4.90625 6.085938 4.972656 5.765625 C 5.042969 5.429688 5.246094 5.113281 5.542969 4.882812 C 5.835938 4.648438 6.191406 4.523438 6.53125 4.535156 C 6.859375 4.542969 7.140625 4.675781 7.320312 4.902344 C 7.589844 5.242188 7.585938 5.753906 7.308594 6.203125 C 7.242188 6.3125 7.277344 6.457031 7.386719 6.523438 C 7.496094 6.59375 7.640625 6.558594 7.710938 6.449219 C 8.089844 5.832031 8.078125 5.109375 7.6875 4.609375 C 7.421875 4.273438 7.015625 4.078125 6.546875 4.066406 C 6.09375 4.050781 5.632812 4.210938 5.25 4.511719 C 4.867188 4.8125 4.605469 5.222656 4.511719 5.667969 C 4.417969 6.125 4.511719 6.566406 4.777344 6.90625 C 5.058594 7.261719 5.5 7.449219 5.972656 7.449219 C 6.277344 7.449219 6.589844 7.371094 6.886719 7.214844 Z M 6.886719 7.214844 "/>
<path d="M 11.445312 5.109375 C 11.445312 4.621094 10.992188 4.226562 10.433594 4.226562 C 9.878906 4.226562 9.425781 4.621094 9.425781 5.109375 C 9.425781 5.597656 9.878906 5.992188 10.433594 5.992188 C 10.992188 5.992188 11.445312 5.597656 11.445312 5.109375 Z M 9.894531 5.109375 C 9.894531 4.882812 10.136719 4.695312 10.433594 4.695312 C 10.734375 4.695312 10.976562 4.882812 10.976562 5.109375 C 10.976562 5.335938 10.734375 5.523438 10.433594 5.523438 C 10.136719 5.523438 9.894531 5.335938 9.894531 5.109375 Z M 9.894531 5.109375 "/>
<path d="M 8.71875 9.144531 C 8.71875 8.550781 8.234375 8.0625 7.636719 8.0625 C 7.039062 8.0625 6.554688 8.550781 6.554688 9.144531 C 6.554688 9.742188 7.039062 10.226562 7.636719 10.226562 C 8.234375 10.226562 8.71875 9.742188 8.71875 9.144531 Z M 7.023438 9.144531 C 7.023438 8.808594 7.300781 8.535156 7.636719 8.535156 C 7.976562 8.535156 8.25 8.808594 8.25 9.144531 C 8.25 9.484375 7.976562 9.757812 7.636719 9.757812 C 7.300781 9.757812 7.023438 9.484375 7.023438 9.144531 Z M 7.023438 9.144531 "/>
<path d="M 11.78125 8.703125 C 11.78125 8.242188 11.402344 7.863281 10.9375 7.863281 C 10.476562 7.863281 10.097656 8.242188 10.097656 8.703125 C 10.097656 9.167969 10.476562 9.546875 10.9375 9.546875 C 11.402344 9.546875 11.78125 9.167969 11.78125 8.703125 Z M 10.566406 8.703125 C 10.566406 8.5 10.734375 8.332031 10.9375 8.332031 C 11.144531 8.332031 11.3125 8.5 11.3125 8.703125 C 11.3125 8.910156 11.144531 9.078125 10.9375 9.078125 C 10.734375 9.078125 10.566406 8.910156 10.566406 8.703125 Z M 10.566406 8.703125 "/>
<path d="M 8.699219 12.488281 C 9.152344 12.488281 9.523438 12.121094 9.523438 11.664062 C 9.523438 11.210938 9.152344 10.839844 8.699219 10.839844 C 8.242188 10.839844 7.875 11.210938 7.875 11.664062 C 7.875 12.121094 8.242188 12.488281 8.699219 12.488281 Z M 8.699219 11.308594 C 8.894531 11.308594 9.054688 11.46875 9.054688 11.664062 C 9.054688 11.859375 8.894531 12.019531 8.699219 12.019531 C 8.503906 12.019531 8.34375 11.859375 8.34375 11.664062 C 8.34375 11.46875 8.503906 11.308594 8.699219 11.308594 Z M 8.699219 11.308594 "/>
<path d="M 5.007812 11.101562 C 5.476562 11.101562 5.859375 10.722656 5.859375 10.253906 C 5.859375 9.785156 5.476562 9.40625 5.007812 9.40625 C 4.539062 9.40625 4.160156 9.785156 4.160156 10.253906 C 4.160156 10.722656 4.539062 11.101562 5.007812 11.101562 Z M 5.007812 9.875 C 5.21875 9.875 5.386719 10.042969 5.386719 10.253906 C 5.386719 10.464844 5.21875 10.632812 5.007812 10.632812 C 4.800781 10.632812 4.628906 10.464844 4.628906 10.253906 C 4.628906 10.042969 4.800781 9.875 5.007812 9.875 Z M 5.007812 9.875 "/>
<path d="M 9.789062 7.316406 C 9.789062 7.183594 9.683594 7.082031 9.554688 7.082031 L 9.347656 7.082031 C 9.21875 7.082031 9.113281 7.183594 9.113281 7.316406 C 9.113281 7.445312 9.21875 7.550781 9.347656 7.550781 L 9.554688 7.550781 C 9.683594 7.550781 9.789062 7.445312 9.789062 7.316406 Z M 9.789062 7.316406 "/>
<path d="M 6.578125 11.65625 L 6.789062 11.65625 C 6.917969 11.65625 7.023438 11.550781 7.023438 11.421875 C 7.023438 11.289062 6.917969 11.183594 6.789062 11.183594 L 6.578125 11.183594 C 6.445312 11.183594 6.339844 11.289062 6.339844 11.421875 C 6.339844 11.550781 6.445312 11.65625 6.578125 11.65625 Z M 6.578125 11.65625 "/>
<path d="M 4.597656 8.234375 C 4.730469 8.234375 4.835938 8.128906 4.835938 8 C 4.835938 7.871094 4.730469 7.765625 4.597656 7.765625 L 4.394531 7.765625 C 4.265625 7.765625 4.160156 7.871094 4.160156 8 C 4.160156 8.128906 4.265625 8.234375 4.394531 8.234375 Z M 4.597656 8.234375 "/>
<path d="M 8.769531 4.125 C 8.898438 4.125 9.003906 4.019531 9.003906 3.890625 C 9.003906 3.761719 8.898438 3.65625 8.769531 3.65625 L 8.484375 3.65625 C 8.355469 3.65625 8.25 3.761719 8.25 3.890625 C 8.25 4.019531 8.355469 4.125 8.484375 4.125 Z M 8.769531 4.125 "/>
<path d="M 10.332031 10.421875 C 10.203125 10.421875 10.097656 10.527344 10.097656 10.65625 C 10.097656 10.785156 10.203125 10.890625 10.332031 10.890625 L 10.648438 10.890625 C 10.777344 10.890625 10.882812 10.785156 10.882812 10.65625 C 10.882812 10.527344 10.777344 10.421875 10.648438 10.421875 Z M 10.332031 10.421875 "/>
</svg>
