<svg xmlns="http://www.w3.org/2000/svg" width="16" height="16" fill="#777d74">
    <path d="M 9.5 3 L 3.5 3 C 3.222656 3 3 3.222656 3 3.5 C 3 3.777344 3.222656 4 3.5 4 L 9.5 4 C 9.777344 4 10 3.777344 10 3.5 C 10 3.222656 9.777344 3 9.5 3 Z M 9.5 3 "/>
    <path d="M 7.5 5 L 3.5 5 C 3.222656 5 3 5.222656 3 5.5 C 3 5.777344 3.222656 6 3.5 6 L 7.5 6 C 7.777344 6 8 5.777344 8 5.5 C 8 5.222656 7.777344 5 7.5 5 Z M 7.5 5 "/>
    <path d="M 11 0 L 2 0 C 0.898438 0 0 0.898438 0 2 L 0 12 C 0 12.195312 0.113281 12.371094 0.289062 12.453125 C 0.355469 12.484375 0.429688 12.5 0.5 12.5 C 0.613281 12.5 0.730469 12.460938 0.820312 12.382812 L 3.679688 10 L 11 10 C 12.101562 10 13 9.101562 13 8 L 13 2 C 13 0.898438 12.101562 0 11 0 Z M 12 8 C 12 8.550781 11.550781 9 11 9 L 3.5 9 C 3.382812 9 3.269531 9.039062 3.179688 9.117188 L 1 10.933594 L 1 2 C 1 1.449219 1.449219 1 2 1 L 11 1 C 11.550781 1 12 1.449219 12 2 Z M 12 8 "/>
    <path d="M 14 4 C 13.722656 4 13.5 4.222656 13.5 4.5 C 13.5 4.777344 13.722656 5 14 5 C 14.550781 5 15 5.449219 15 6 L 15 14.460938 L 13.3125 13.109375 C 13.222656 13.039062 13.113281 13 13 13 L 6 13 C 5.449219 13 5 12.550781 5 12 L 5 11.5 C 5 11.222656 4.777344 11 4.5 11 C 4.222656 11 4 11.222656 4 11.5 L 4 12 C 4 13.101562 4.898438 14 6 14 L 12.824219 14 L 15.1875 15.890625 C 15.277344 15.964844 15.390625 16 15.5 16 C 15.574219 16 15.648438 15.984375 15.71875 15.949219 C 15.890625 15.867188 16 15.691406 16 15.5 L 16 6 C 16 4.898438 15.101562 4 14 4 Z M 14 4 "/>
</svg>
