<svg xmlns="http://www.w3.org/2000/svg" width="16" height="16" fill="#777d74">
    <path d="M 7.316406 14.722656 L 1.886719 14.722656 C 1.6875 14.722656 1.5 14.628906 1.382812 14.464844 C 1.265625 14.304688 1.230469 14.101562 1.292969 13.90625 C 1.910156 11.992188 3.789062 10.652344 5.867188 10.652344 C 6.832031 10.652344 7.757812 10.941406 8.546875 11.492188 C 8.832031 11.691406 9.21875 11.621094 9.417969 11.339844 C 9.613281 11.054688 9.546875 10.667969 9.261719 10.46875 C 8.871094 10.195312 8.453125 9.976562 8.019531 9.804688 C 8.597656 9.277344 8.984375 8.539062 9.050781 7.710938 C 9.929688 6.851562 11.085938 6.382812 12.324219 6.382812 C 13.289062 6.382812 14.214844 6.671875 15.003906 7.222656 C 15.289062 7.421875 15.675781 7.351562 15.875 7.070312 C 16.070312 6.785156 16 6.398438 15.71875 6.199219 C 15.328125 5.925781 14.910156 5.707031 14.476562 5.535156 C 15.117188 4.953125 15.519531 4.113281 15.519531 3.179688 C 15.519531 1.425781 14.089844 0 12.335938 0 C 10.582031 0 9.15625 1.425781 9.15625 3.183594 C 9.15625 4.109375 9.554688 4.945312 10.191406 5.527344 C 10.105469 5.5625 10.015625 5.597656 9.929688 5.636719 C 9.542969 5.808594 9.175781 6.019531 8.832031 6.265625 C 8.363281 5.097656 7.214844 4.269531 5.878906 4.269531 C 4.125 4.269531 2.699219 5.695312 2.699219 7.453125 C 2.699219 8.375 3.09375 9.210938 3.726562 9.792969 C 2.035156 10.425781 0.664062 11.789062 0.105469 13.527344 C -0.078125 14.101562 0.0195312 14.710938 0.375 15.203125 C 0.730469 15.691406 1.28125 15.96875 1.886719 15.96875 L 7.316406 15.96875 C 7.660156 15.96875 7.9375 15.691406 7.9375 15.347656 C 7.9375 15.003906 7.660156 14.722656 7.316406 14.722656 Z M 12.335938 1.246094 C 13.402344 1.246094 14.269531 2.117188 14.269531 3.179688 C 14.269531 4.246094 13.402344 5.117188 12.335938 5.117188 C 11.269531 5.117188 10.402344 4.246094 10.402344 3.179688 C 10.402344 2.117188 11.269531 1.246094 12.335938 1.246094 Z M 5.878906 5.515625 C 6.945312 5.515625 7.8125 6.382812 7.8125 7.449219 C 7.8125 8.515625 6.945312 9.386719 5.878906 9.386719 C 4.8125 9.386719 3.945312 8.515625 3.945312 7.449219 C 3.945312 6.382812 4.8125 5.515625 5.878906 5.515625 Z M 5.878906 5.515625 "/>
    <path d="M 15.726562 10.191406 C 15.445312 9.988281 15.054688 10.054688 14.855469 10.335938 L 11.78125 14.628906 C 11.695312 14.726562 11.589844 14.746094 11.535156 14.75 C 11.476562 14.753906 11.363281 14.746094 11.265625 14.65625 L 9.277344 12.746094 C 9.027344 12.503906 8.632812 12.515625 8.394531 12.761719 C 8.15625 13.011719 8.164062 13.40625 8.414062 13.644531 L 10.40625 15.558594 C 10.703125 15.84375 11.101562 16 11.511719 16 C 11.546875 16 11.582031 16 11.617188 15.996094 C 12.0625 15.964844 12.480469 15.75 12.761719 15.402344 C 12.769531 15.390625 12.777344 15.382812 12.78125 15.375 L 15.871094 11.058594 C 16.070312 10.78125 16.003906 10.390625 15.726562 10.191406 Z M 15.726562 10.191406 "/>
</svg>
