<svg xmlns="http://www.w3.org/2000/svg" width="16" height="16" fill="#777d74">
<path d="M 8.667969 4 C 8.667969 4.367188 8.367188 4.667969 8 4.667969 C 7.632812 4.667969 7.332031 4.367188 7.332031 4 C 7.332031 3.632812 7.632812 3.332031 8 3.332031 C 8.367188 3.332031 8.667969 3.632812 8.667969 4 Z M 8.667969 4 "/>
<path d="M 8 12.667969 C 7.722656 12.667969 7.5 12.441406 7.5 12.167969 L 7.5 7 L 6.832031 7 C 6.558594 7 6.332031 6.777344 6.332031 6.5 C 6.332031 6.222656 6.558594 6 6.832031 6 L 8 6 C 8.277344 6 8.5 6.222656 8.5 6.5 L 8.5 12.167969 C 8.5 12.441406 8.277344 12.667969 8 12.667969 Z M 8 12.667969 "/>
<path d="M 8 16 C 3.589844 16 0 12.410156 0 8 C 0 3.589844 3.589844 0 8 0 C 12.410156 0 16 3.589844 16 8 C 16 12.410156 12.410156 16 8 16 Z M 8 1 C 4.140625 1 1 4.140625 1 8 C 1 11.859375 4.140625 15 8 15 C 11.859375 15 15 11.859375 15 8 C 15 4.140625 11.859375 1 8 1 Z M 8 1 "/>
<path d="M 9.5 12.667969 L 6.5 12.667969 C 6.222656 12.667969 6 12.441406 6 12.167969 C 6 11.890625 6.222656 11.667969 6.5 11.667969 L 9.5 11.667969 C 9.777344 11.667969 10 11.890625 10 12.167969 C 10 12.441406 9.777344 12.667969 9.5 12.667969 Z M 9.5 12.667969 "/>
</svg>
