<svg xmlns="http://www.w3.org/2000/svg"  width="16" height="16" fill="#777d74">
<path d="M 14.277344 0 L 1.722656 0 C 0.773438 0 0 0.773438 0 1.722656 L 0 14.277344 C 0 15.226562 0.773438 16 1.722656 16 L 14.277344 16 C 15.226562 16 16 15.226562 16 14.277344 L 16 1.722656 C 16 0.773438 15.226562 0 14.277344 0 Z M 1.722656 0.9375 L 14.277344 0.9375 C 14.710938 0.9375 15.0625 1.289062 15.0625 1.722656 L 15.0625 4.015625 L 0.9375 4.015625 L 0.9375 1.722656 C 0.9375 1.289062 1.289062 0.9375 1.722656 0.9375 Z M 14.277344 15.0625 L 1.722656 15.0625 C 1.289062 15.0625 0.9375 14.710938 0.9375 14.277344 L 0.9375 4.953125 L 15.0625 4.953125 L 15.0625 14.277344 C 15.0625 14.710938 14.710938 15.0625 14.277344 15.0625 Z M 14.277344 15.0625 "/>
<path d="M 4.484375 2.945312 L 11.515625 2.945312 C 11.773438 2.945312 11.984375 2.734375 11.984375 2.476562 C 11.984375 2.21875 11.773438 2.007812 11.515625 2.007812 L 4.484375 2.007812 C 4.226562 2.007812 4.015625 2.21875 4.015625 2.476562 C 4.015625 2.734375 4.226562 2.945312 4.484375 2.945312 Z M 4.484375 2.945312 "/>
<path d="M 2.476562 9.472656 L 4.484375 9.472656 C 4.746094 9.472656 4.953125 9.261719 4.953125 9.003906 L 4.953125 6.996094 C 4.953125 6.738281 4.746094 6.527344 4.484375 6.527344 L 2.476562 6.527344 C 2.21875 6.527344 2.007812 6.738281 2.007812 6.996094 L 2.007812 9.003906 C 2.007812 9.261719 2.21875 9.472656 2.476562 9.472656 Z M 2.945312 7.464844 L 4.015625 7.464844 L 4.015625 8.535156 L 2.945312 8.535156 Z M 2.945312 7.464844 "/>
<path d="M 13.523438 8.535156 L 6.492188 8.535156 C 6.234375 8.535156 6.023438 8.746094 6.023438 9.003906 C 6.023438 9.261719 6.234375 9.472656 6.492188 9.472656 L 13.523438 9.472656 C 13.78125 9.472656 13.992188 9.261719 13.992188 9.003906 C 13.992188 8.746094 13.78125 8.535156 13.523438 8.535156 Z M 13.523438 8.535156 "/>
<path d="M 13.523438 10.542969 L 2.476562 10.542969 C 2.21875 10.542969 2.007812 10.753906 2.007812 11.011719 C 2.007812 11.269531 2.21875 11.480469 2.476562 11.480469 L 13.523438 11.480469 C 13.78125 11.480469 13.992188 11.269531 13.992188 11.011719 C 13.992188 10.753906 13.78125 10.542969 13.523438 10.542969 Z M 13.523438 10.542969 "/>
<path d="M 13.523438 12.550781 L 2.476562 12.550781 C 2.21875 12.550781 2.007812 12.761719 2.007812 13.019531 C 2.007812 13.28125 2.21875 13.488281 2.476562 13.488281 L 13.523438 13.488281 C 13.78125 13.488281 13.992188 13.28125 13.992188 13.019531 C 13.992188 12.761719 13.78125 12.550781 13.523438 12.550781 Z M 13.523438 12.550781 "/>
<path d="M 13.523438 6.527344 L 6.492188 6.527344 C 6.234375 6.527344 6.023438 6.738281 6.023438 6.996094 C 6.023438 7.253906 6.234375 7.464844 6.492188 7.464844 L 13.523438 7.464844 C 13.78125 7.464844 13.992188 7.253906 13.992188 6.996094 C 13.992188 6.738281 13.78125 6.527344 13.523438 6.527344 Z M 13.523438 6.527344 "/>
</svg>
