<svg xmlns="http://www.w3.org/2000/svg"  width="16" height="16" fill="#777d74">
<path d="M 13.835938 7.390625 C 14.304688 7.0625 14.617188 6.511719 14.617188 5.894531 C 14.617188 4.886719 13.800781 4.070312 12.789062 4.070312 C 11.78125 4.070312 10.964844 4.886719 10.964844 5.894531 C 10.964844 6.511719 11.269531 7.0625 11.742188 7.390625 C 11.339844 7.53125 10.972656 7.746094 10.664062 8.023438 C 10.234375 7.660156 9.730469 7.382812 9.179688 7.214844 C 9.847656 6.8125 10.296875 6.074219 10.296875 5.234375 C 10.296875 3.957031 9.261719 2.921875 7.984375 2.921875 C 6.707031 2.921875 5.671875 3.957031 5.671875 5.234375 C 5.671875 6.074219 6.117188 6.8125 6.789062 7.214844 C 6.242188 7.382812 5.746094 7.65625 5.320312 8.015625 C 5.011719 7.742188 4.652344 7.53125 4.253906 7.394531 C 4.722656 7.066406 5.035156 6.515625 5.035156 5.898438 C 5.035156 4.890625 4.21875 4.074219 3.207031 4.074219 C 2.195312 4.074219 1.378906 4.890625 1.378906 5.898438 C 1.378906 6.515625 1.6875 7.066406 2.160156 7.394531 C 0.902344 7.828125 0 9.019531 0 10.421875 L 0 10.632812 C 0 10.640625 0.0078125 10.644531 0.0117188 10.644531 L 3.882812 10.644531 C 3.863281 10.820312 3.851562 11 3.851562 11.179688 L 3.851562 11.394531 C 3.851562 12.324219 4.601562 13.078125 5.535156 13.078125 L 10.441406 13.078125 C 11.371094 13.078125 12.125 12.324219 12.125 11.394531 L 12.125 11.179688 C 12.125 11 12.113281 10.820312 12.089844 10.644531 L 15.988281 10.644531 C 15.992188 10.644531 16 10.640625 16 10.632812 L 16 10.421875 C 15.992188 9.019531 15.09375 7.824219 13.835938 7.390625 Z M 11.46875 5.894531 C 11.46875 5.164062 12.0625 4.574219 12.789062 4.574219 C 13.519531 4.574219 14.109375 5.164062 14.109375 5.894531 C 14.109375 6.613281 13.53125 7.199219 12.816406 7.214844 C 12.804688 7.214844 12.800781 7.214844 12.789062 7.214844 C 12.78125 7.214844 12.773438 7.214844 12.765625 7.214844 C 12.046875 7.199219 11.46875 6.613281 11.46875 5.894531 Z M 6.171875 5.234375 C 6.171875 4.238281 6.980469 3.425781 7.976562 3.425781 C 8.976562 3.425781 9.785156 4.238281 9.785156 5.234375 C 9.785156 6.195312 9.027344 6.984375 8.082031 7.039062 C 8.046875 7.039062 8.011719 7.039062 7.976562 7.039062 C 7.941406 7.039062 7.90625 7.039062 7.875 7.039062 C 6.925781 6.984375 6.171875 6.195312 6.171875 5.234375 Z M 1.878906 5.894531 C 1.878906 5.164062 2.46875 4.574219 3.199219 4.574219 C 3.925781 4.574219 4.519531 5.164062 4.519531 5.894531 C 4.519531 6.613281 3.9375 7.199219 3.222656 7.214844 C 3.214844 7.214844 3.207031 7.214844 3.199219 7.214844 C 3.1875 7.214844 3.179688 7.214844 3.171875 7.214844 C 2.457031 7.199219 1.878906 6.613281 1.878906 5.894531 Z M 3.972656 10.136719 L 0.511719 10.136719 C 0.65625 8.785156 1.796875 7.730469 3.179688 7.71875 C 3.183594 7.71875 3.191406 7.71875 3.199219 7.71875 C 3.203125 7.71875 3.210938 7.71875 3.214844 7.71875 C 3.875 7.722656 4.476562 7.964844 4.941406 8.363281 C 4.484375 8.855469 4.148438 9.464844 3.972656 10.136719 Z M 11.613281 11.394531 C 11.613281 12.042969 11.082031 12.574219 10.433594 12.574219 L 5.527344 12.574219 C 4.878906 12.574219 4.351562 12.042969 4.351562 11.394531 L 4.351562 11.179688 C 4.351562 9.214844 5.921875 7.605469 7.875 7.550781 C 7.90625 7.550781 7.945312 7.550781 7.980469 7.550781 C 8.015625 7.550781 8.054688 7.550781 8.089844 7.550781 C 10.042969 7.605469 11.613281 9.214844 11.613281 11.179688 Z M 11.988281 10.136719 C 11.816406 9.46875 11.480469 8.867188 11.03125 8.375 C 11.5 7.96875 12.105469 7.726562 12.769531 7.71875 C 12.777344 7.71875 12.785156 7.71875 12.789062 7.71875 C 12.796875 7.71875 12.800781 7.71875 12.808594 7.71875 C 14.191406 7.730469 15.332031 8.785156 15.472656 10.136719 Z M 11.988281 10.136719 "/>
</svg>
