<svg xmlns="http://www.w3.org/2000/svg" width="16" height="16" fill="#777d74">
<path d="M 8 0 C 5.671875 0 3.78125 1.890625 3.78125 4.21875 C 3.78125 6.546875 5.671875 8.4375 8 8.4375 C 10.328125 8.4375 12.21875 6.546875 12.21875 4.21875 C 12.21875 1.890625 10.328125 0 8 0 Z M 8 7.5 C 6.191406 7.5 4.71875 6.027344 4.71875 4.21875 C 4.71875 2.410156 6.191406 0.9375 8 0.9375 C 9.808594 0.9375 11.28125 2.410156 11.28125 4.21875 C 11.28125 6.027344 9.808594 7.5 8 7.5 Z M 8 7.5 "/>
<path d="M 9.308594 9.40625 L 6.691406 9.40625 C 4.53125 9.40625 2.394531 10.40625 0.96875 12.546875 L 0.96875 16 L 15.03125 16 L 15.03125 12.546875 C 13.605469 10.40625 11.472656 9.40625 9.308594 9.40625 Z M 14.09375 15.0625 L 1.90625 15.0625 L 1.90625 12.832031 C 3 11.269531 4.78125 10.34375 6.691406 10.34375 L 9.308594 10.34375 C 11.21875 10.34375 13 11.269531 14.09375 12.832031 Z M 14.09375 15.0625 "/>
</svg>
